<svg xmlns="http://www.w3.org/2000/svg" xmlns:xlink="http://www.w3.org/1999/xlink" version="1.1" id="Layer_1" x="0px" y="0px" viewBox="0 0 63.2 63.2" style="enable-background:new 0 0 63.2 63.2;" xml:space="preserve" class="style-svg data-management927 replaced-svg svg-replaced-4">
                                        <style type="text/css">
                                            .st0{fill:#00B050;}
                                        </style>
                                    <g id="XMLID_54_">
                                        <g id="XMLID_66_">
                                            <path class="st0" d="M31.6,63.2C14.2,63.2,0,49.1,0,31.6C0,14.2,14.2,0,31.6,0s31.6,14.2,31.6,31.6C63.2,49.1,49,63.2,31.6,63.2z     M31.6,1C14.7,1,1,14.8,1,31.6s13.7,30.6,30.6,30.6s30.6-13.7,30.6-30.6S48.5,1,31.6,1z"></path>
                                        </g>
                                        <g id="XMLID_65_">
                                            <path class="st0" d="M24.3,21.9c-1.3,0-2.4,1.1-2.4,2.4s1.1,2.4,2.4,2.4s2.4-1.1,2.4-2.4C26.7,22.9,25.7,21.9,24.3,21.9"></path>
                                        </g>
                                        <g id="XMLID_64_">
                                            <path class="st0" d="M31.7,18.9c-1.3,0-2.4,1.1-2.4,2.4c0,1.3,1.1,2.4,2.4,2.4s2.4-1.1,2.4-2.4C34,19.9,33,18.9,31.7,18.9"></path>
                                        </g>
                                        <g id="XMLID_63_">
                                            <path class="st0" d="M39,26.7c1.3,0,2.4-1.1,2.4-2.4s-1.1-2.4-2.4-2.4s-2.4,1.1-2.4,2.4C36.7,25.7,37.7,26.7,39,26.7"></path>
                                        </g>
                                        <g id="XMLID_62_">
                                            <path class="st0" d="M41.8,29.2c-1.3,0-2.4,1.1-2.4,2.4c0,1.3,1.1,2.4,2.4,2.4s2.4-1.1,2.4-2.4C44.1,30.2,43.1,29.2,41.8,29.2"></path>
                                        </g>
                                        <g id="XMLID_61_">
                                            <path class="st0" d="M39.1,36.6c-1.3,0-2.4,1.1-2.4,2.4s1.1,2.4,2.4,2.4c1.3,0,2.4-1.1,2.4-2.4C41.5,37.6,40.4,36.6,39.1,36.6"></path>
                                        </g>
                                        <g id="XMLID_60_">
                                            <path class="st0" d="M31.7,39.6c-1.3,0-2.4,1.1-2.4,2.4s1.1,2.4,2.4,2.4s2.4-1.1,2.4-2.4C34,40.7,33,39.6,31.7,39.6"></path>
                                        </g>
                                        <g id="XMLID_59_">
                                            <path class="st0" d="M24.3,36.6c-1.3,0-2.4,1.1-2.4,2.4s1.1,2.4,2.4,2.4s2.4-1.1,2.4-2.4C26.7,37.7,25.6,36.6,24.3,36.6"></path>
                                        </g>
                                        <g id="XMLID_58_">
                                            <path class="st0" d="M24,31.7c0-1.3-1.1-2.4-2.4-2.4s-2.4,1.1-2.4,2.4c0,1.3,1.1,2.4,2.4,2.4C22.9,33.9,24,32.9,24,31.7"></path>
                                        </g>
                                        <g id="XMLID_55_">
                                            <path class="st0" d="M52.9,31.8c0-1.7-1.2-3.1-2.7-3.4c-0.5-2.7-1.5-5.2-3.1-7.4c0.5-0.6,0.9-1.4,0.9-2.3c0-1.9-1.6-3.5-3.5-3.5    c-0.9,0-1.7,0.4-2.4,0.9c-2.1-1.4-4.5-2.4-7.1-2.8c-0.2-1.7-1.7-3.1-3.5-3.1c-1.8,0-3.3,1.4-3.5,3.1c-2.5,0.5-4.8,1.5-6.8,2.9    c-0.6-0.6-1.5-1-2.4-1c-1.9,0-3.5,1.6-3.5,3.5c0,0.9,0.4,1.8,1,2.4c-1.4,2.1-2.5,4.5-3,7.1c-1.7,0.2-3.1,1.7-3.1,3.5    c0,1.8,1.4,3.3,3.1,3.5c0.5,2.5,1.5,4.9,2.9,7c-0.6,0.6-1,1.5-1,2.4c0,1.9,1.6,3.5,3.5,3.5c0.9,0,1.8-0.4,2.4-1    c2,1.4,4.4,2.4,6.9,2.9c0.2,1.8,1.7,3.1,3.5,3.1s3.3-1.3,3.5-3.1c2.6-0.5,5-1.5,7.1-2.9c0.6,0.5,1.4,0.9,2.3,0.9    c1.9,0,3.5-1.6,3.5-3.5c0-0.9-0.3-1.7-0.8-2.3c1.5-2.1,2.5-4.5,3-7.1C51.7,34.8,52.9,33.4,52.9,31.8 M44.5,41    c-1.9,0-3.5,1.6-3.5,3.5c0,0.7,0.2,1.3,0.5,1.8c-1.9,1.3-4.1,2.2-6.4,2.6c-0.3-1.6-1.7-2.8-3.4-2.8s-3.1,1.2-3.4,2.8    c-2.3-0.5-4.4-1.4-6.3-2.7c0.3-0.5,0.4-1.1,0.4-1.7c0-1.9-1.6-3.5-3.5-3.5c-0.6,0-1.2,0.2-1.7,0.4c-1.3-1.9-2.2-4.1-2.7-6.4    c1.6-0.3,2.8-1.7,2.8-3.4c0-1.7-1.2-3.1-2.8-3.4c0.5-2.4,1.4-4.6,2.7-6.5c0.5,0.3,1.1,0.4,1.7,0.4c1.9,0,3.5-1.6,3.5-3.5    c0-0.6-0.2-1.2-0.4-1.7c1.9-1.3,4-2.2,6.2-2.6c0.3,1.6,1.7,2.8,3.4,2.8s3.1-1.2,3.4-2.9c2.4,0.4,4.5,1.3,6.5,2.6    C41.2,17.4,41,18,41,18.7c0,1.9,1.6,3.5,3.5,3.5c0.7,0,1.3-0.2,1.8-0.5c1.4,2,2.3,4.2,2.8,6.6c-1.8,0.2-3.2,1.6-3.2,3.5    c0,1.8,1.4,3.3,3.1,3.5c-0.5,2.3-1.4,4.5-2.7,6.3C45.8,41.2,45.2,41,44.5,41"></path>
                                        </g>
                                    </g>
                                    </svg>